<svg version="1.2" xmlns="http://www.w3.org/2000/svg" viewBox="0 0 238 172" width="238" height="172"><defs><clipPath clipPathUnits="userSpaceOnUse" id="cp1"><path d="m0 0h238v172h-238z"/></clipPath></defs><style>.a{fill:#733cc0}</style><g clip-path="url(#cp1)"><path fill-rule="evenodd" class="a" d="m131.8 25.7h13.7c1 0 1.8 0.6 2.3 1.2 0.6 0.8 0.8 1.6 0.4 2.5l-39.8 115c-0.6 1.1-1.6 1.9-2.8 1.9h-13.7q-1.4 0-2.3-1.2c-0.6-0.7-0.8-1.5-0.4-2.5l39.9-114.9c0.5-1.2 1.5-2 2.7-2zm-35.8 115.2h7.7l37.7-109.3h-7.7zm62.3-92.5l48.2 31.3c2.7 1.7 4.3 4.5 4.4 7.5 0 3.1-1.5 6-4.2 7.8l-48.2 31.3c-0.6 0.2-1 0.4-1.5 0.4-0.4 0-1 0-1.4-0.4-1-0.5-1.5-1.5-1.5-2.5v-15.5c0-0.7 0.5-1.7 1.3-2.3l29-18.8-29-18.7c-1-0.6-1.3-1.4-1.3-2.3v-15.5c0-1 0.5-2.2 1.5-2.5 0.8-0.4 1.7-0.4 2.7 0.2zm-78.9 0.1c0.5-0.5 1.7-0.5 2.7-0.1 0.9 0.3 1.5 1.3 1.9 2.3v15.6c0 0.8-0.6 1.8-1.3 2.4l-29.1 18.7 29.1 18.8c0.9 0.6 1.3 1.4 1.3 2.3v15.5c0 1-0.6 2.1-1.5 2.5-0.4 0.2-1 0.4-1.4 0.4-0.6 0-1.2 0-1.5-0.4l-48.2-31.3c-2.7-1.8-4.3-4.5-4.3-7.8 0-3.1 1.6-6 4.3-7.7l3.5-2.3zm-31.2 35.4l29.8-19.4v-8.9l-36.6 23.8zm153.3 8l2.1-1.4c1-0.8 1.6-1.9 1.4-3.1 0-1.3-0.6-2.3-1.6-3.1l-43.7-28.4v8.7zm-123.5 27.1v-8.7l-41.6-27.3-2.1 1.3c-1 0.8-1.5 2-1.5 3.1 0 1.4 0.5 2.4 1.5 3.1zm81.7-8.9v8.7l36.5-23.6-6.7-4.4z"/></g></svg>