<svg version="1.2" xmlns="http://www.w3.org/2000/svg" viewBox="486 208 597 172" width="597" height="172"><defs><clipPath clipPathUnits="userSpaceOnUse" id="cp1"><path d="m486 208h597v172h-597z"/></clipPath></defs><style>.a{fill:#733cc0}</style><g clip-path="url(#cp1)"><path fill-rule="evenodd" class="a" d="m617.8 233.7h13.7c1 0 1.8 0.6 2.3 1.2 0.6 0.8 0.8 1.6 0.4 2.5l-39.8 115c-0.6 1.1-1.6 1.9-2.8 1.9h-13.7q-1.4 0-2.3-1.2c-0.6-0.7-0.8-1.5-0.4-2.5l39.9-114.9c0.5-1.2 1.5-2 2.7-2zm-35.8 115.2h7.7l37.7-109.3h-7.7zm62.3-92.5l48.2 31.3c2.7 1.7 4.3 4.5 4.4 7.5 0 3.1-1.5 6-4.2 7.8l-48.2 31.3c-0.6 0.2-1 0.4-1.5 0.4-0.4 0-1 0-1.4-0.4-1-0.5-1.5-1.5-1.5-2.5v-15.5c0-0.7 0.5-1.7 1.3-2.3l29-18.8-29-18.7c-1-0.6-1.3-1.4-1.3-2.3v-15.5c0-1 0.5-2.2 1.5-2.5 0.8-0.4 1.7-0.4 2.7 0.2zm-78.9 0.1c0.5-0.5 1.7-0.5 2.7-0.1 0.9 0.3 1.5 1.3 1.9 2.3v15.6c0 0.8-0.6 1.8-1.3 2.4l-29.1 18.7 29.1 18.8c0.9 0.6 1.3 1.4 1.3 2.3v15.5c0 1-0.6 2.1-1.5 2.5-0.4 0.2-1 0.4-1.4 0.4-0.6 0-1.2 0-1.5-0.4l-48.2-31.3c-2.7-1.8-4.3-4.5-4.3-7.8 0-3.1 1.6-6 4.3-7.7l3.5-2.3zm-31.2 35.4l29.8-19.4v-8.9l-36.6 23.8zm153.3 8l2.1-1.4c1-0.8 1.6-1.9 1.4-3.1 0-1.3-0.6-2.3-1.6-3.1l-43.7-28.4v8.7zm-123.5 27.1v-8.7l-41.6-27.3-2.1 1.3c-1 0.8-1.5 2-1.5 3.1 0 1.4 0.5 2.4 1.5 3.1zm81.7-8.9v8.7l36.5-23.6-6.7-4.4z"/><path class="a" d="m744.2 321h-9.7q-5 0-7.9-2.8-2.8-2.8-2.8-7.6v-26.3q0-4.8 2.8-7.6 2.9-2.8 7.9-2.8h9.7q5 0 7.8 2.8 2.9 2.8 2.9 7.6v3.6q0 0.9-0.8 0.9h-2.2q-0.8 0-0.8-0.9v-3.5q0-3.5-1.9-5.3-1.9-1.9-5.4-1.9h-9q-3.5 0-5.4 1.9-1.8 1.9-1.8 5.3v26q0 3.5 1.8 5.4 1.9 1.9 5.4 1.9h9q3.5 0 5.4-1.8 1.9-1.9 1.9-5.5v-3.4q0-0.9 0.8-0.9h2.2q0.8 0 0.8 0.9v3.6q0 4.8-2.9 7.6-2.8 2.8-7.8 2.8zm32.2-3.3h8.8q3.5 0 5.3-1.8 2-1.9 2-5.5v-26q0-3.5-2-5.3-1.8-1.9-5.3-1.9h-8.8q-3.5 0-5.4 1.9-1.8 1.9-1.8 5.3v26q0 3.5 1.8 5.4 1.9 1.9 5.4 1.9zm9.2 3.3h-9.5q-5 0-7.9-2.8-2.8-2.8-2.8-7.6v-26.3q0-4.8 2.8-7.6 2.9-2.8 7.9-2.8h9.5q4.9 0 7.8 2.8 2.9 2.8 2.9 7.6v26.3q0 4.8-2.9 7.6-2.9 2.8-7.8 2.8zm58.4-47.1h4.2q0.8 0 0.8 0.9v45.3q0 0.9-0.8 0.9h-2.2q-0.9 0-0.9-0.9v-40.6h-0.3l-13.6 30.4q-0.4 0.8-1.1 0.8h-2.6q-0.7 0-1-0.8l-13.8-30.4h-0.4v40.6q0 0.9-0.7 0.9h-2.2q-0.8 0-0.8-0.9v-45.3q0-0.9 0.8-0.9h4.1q0.5 0 0.7 0.4l14.4 32.2h0.3l14.5-32.2q0.1-0.4 0.6-0.4zm21 47.1h-2.2q-0.8 0-0.8-0.9v-45.3q0-0.9 0.8-0.9h17.6q5 0 7.9 2.8 3 2.8 3 7.6v8.6q0 4.8-3 7.6-2.9 2.8-7.9 2.8h-13.8q-0.8 0-0.8 0.6v16.2q0 0.9-0.8 0.9zm1.6-21.1h13.5q3.6 0 5.4-1.8 1.8-1.9 1.8-5.4v-8.3q0-3.5-1.8-5.3-1.8-1.9-5.4-1.9h-13.5q-0.8 0-0.8 0.6v21.5q0 0.6 0.8 0.6zm34.3 21.1h-2.3q-0.9 0-0.6-0.9l15.3-45.3q0.2-0.9 1.1-0.9h3.6q0.7 0 1 0.9l15.3 45.3q0.3 0.9-0.5 0.9h-2.5q-0.7 0-1-0.9l-4.1-11.7h-20.1l-4.2 11.7q-0.3 0.9-1 0.9zm15.4-43.1h-0.3l-8.9 27.2h18.1zm29.9 43.1h-2.3q-0.7 0-0.7-0.9v-45.4q0-0.8 0.7-0.8h2.1q0.7 0 0.9 0.4l23.6 38.7h0.3v-38.3q0-0.8 0.8-0.8h2.2q0.8 0 0.8 0.8v45.4q0 0.9-0.8 0.9h-1.8q-0.7 0-1.2-0.8l-23.5-38.4h-0.3v38.3q0 0.9-0.8 0.9zm54.9 0h-2.2q-0.9 0-0.9-0.9v-16.9l-14.8-28.5q-0.5-0.8 0.5-0.8h2.8q0.6 0 1 0.8l12.3 24h0.4l12.2-24q0.4-0.8 1.1-0.8h2.8q0.9 0 0.6 0.8l-15 28.5v16.9q0 0.9-0.8 0.9zm25.4-12.9h19.4v-31.3zm22.2 12.9h-2q-0.9 0-0.9-0.9v-8.7h-22.2q-1.2 0-1.2-1v-1.3q0-0.7 0.5-1.7l20.1-32.4q0.7-1.1 1.9-1.1h3.6q1.1 0 1.1 1.1v33.1h5.7q0.9 0 0.9 0.7v1.8q0 0.8-0.9 0.8h-5.7v8.7q0 0.9-0.9 0.9z"/></g></svg>